<svg width="100" height="100" viewBox="0 0 100 100" xmlns="http://www.w3.org/2000/svg" aria-labelledby="primary-logo-title" role="img">
  <title id="primary-logo-title">AI E-commerce Assistant Logo</title>
  <desc>A chat bubble containing a shopping cart with an AI spark, symbolizing intelligent e-commerce conversation.</desc>
  <g transform="translate(10, 10)" fill="none" stroke-width="5">
    <path d="M 1 5C 1 2.23858 3.23858 0 6 0 H 74 C 76.7614 0 79 2.23858 79 5 V 45 C 79 47.7614 76.7614 50 74 50 H 25 L 10 65 V 50 H 6 C 3.23858 50 1 47.7614 1 45 V 5 Z" fill="#2563EB"/>

    <g transform="translate(15, 12)" stroke="#F3F4F6" stroke-linecap="round" stroke-linejoin="round">
      <path d="M 5,5 H 12 L 15,25 H 45 L 50,10 H 18"/>
      <circle cx="20" cy="32" r="3" fill="#F3F4F6" stroke="none"/>
    </g>

    <g transform="translate(50, 44)">
      <path d="M -5,0 L 5,0 M 0,-5 L 0,5" stroke="#06B6D4" stroke-linecap="round"/>
      <path d="M -3.5,-3.5 L 3.5,3.5 M -3.5,3.5 L 3.5,-3.5" stroke="#06B6D4" stroke-linecap="round"/>
    </g>
  </g>
</svg>